<?xml version="1.0" standalone="no"?>
<!DOCTYPE svg PUBLIC "-//W3C//DTD SVG 20010904//EN"
 "http://www.w3.org/TR/2001/REC-SVG-20010904/DTD/svg10.dtd">
<svg version="1.0" xmlns="http://www.w3.org/2000/svg"
 width="256.000000pt" height="256.000000pt" viewBox="0 0 256.000000 256.000000"
 preserveAspectRatio="xMidYMid meet">
<metadata>
Created by potrace 1.14, written by Peter Selinger 2001-2017
</metadata>
<g transform="translate(0.000000,256.000000) scale(0.100000,-0.100000)"
fill="#000000" stroke="none">
<path d="M1133 1856 c-22 -19 -28 -32 -28 -65 0 -38 6 -47 90 -131 49 -50 94
-90 100 -90 20 0 182 174 189 203 8 35 -17 85 -50 97 -44 17 -72 11 -110 -22
-31 -28 -38 -30 -48 -17 -39 52 -99 62 -143 25z m180 -107 c3 -12 10 -18 16
-14 6 3 11 0 11 -8 0 -8 -7 -17 -15 -21 -8 -3 -15 -12 -15 -21 0 -22 -27 -18
-33 5 -3 11 -12 20 -21 20 -23 0 -20 21 4 27 11 3 20 12 20 19 0 22 27 16 33
-7z"/>
<path d="M1585 1584 c-26 -40 -105 -113 -152 -141 -47 -27 -56 -44 -20 -36 46
11 164 71 185 93 15 16 22 37 22 61 0 48 -13 56 -35 23z"/>
<path d="M1681 1564 c-61 -88 -213 -180 -338 -205 -65 -12 -117 -6 -111 13 2
6 30 19 62 28 63 20 93 42 107 78 13 33 3 43 -29 30 -17 -8 -96 -12 -213 -12
l-185 -1 -45 -29 c-79 -52 -176 -183 -153 -206 18 -18 174 -69 274 -91 121
-25 223 -22 324 12 169 57 356 252 356 372 0 57 -15 61 -49 11z"/>
<path d="M1398 1064 c-5 -4 -8 -25 -8 -46 l0 -39 -30 22 c-25 19 -33 21 -55
11 -16 -8 -25 -8 -25 -1 0 6 -4 7 -10 4 -5 -3 -10 -39 -10 -80 0 -41 5 -77 10
-80 6 -4 10 7 10 26 0 26 3 30 12 21 19 -19 47 -14 73 12 l23 24 7 -25 c3 -13
10 -21 15 -18 6 4 8 11 4 16 -13 21 6 78 28 85 29 9 48 -19 48 -69 0 -23 4
-36 10 -32 6 3 10 26 10 50 0 36 -5 48 -25 61 -15 10 -34 14 -49 10 -22 -5
-25 -2 -28 25 -2 17 -6 27 -10 23z m-44 -80 c9 -8 16 -22 16 -29 0 -18 -27
-45 -45 -45 -38 0 -59 61 -27 79 24 15 38 13 56 -5z"/>
<path d="M1748 1060 c-7 -22 4 -170 13 -165 12 8 12 162 0 169 -5 4 -11 2 -13
-4z"/>
<path d="M813 1050 c-37 -15 -28 -80 11 -80 33 0 61 -24 53 -45 -7 -16 -37
-18 -72 -4 -5 2 -11 0 -13 -6 -4 -16 53 -26 82 -15 18 6 26 17 26 34 0 26 -13
40 -50 51 -40 12 -52 25 -38 42 8 10 22 13 45 8 20 -4 33 -2 33 5 0 5 -6 10
-14 10 -8 0 -20 2 -28 4 -7 3 -23 1 -35 -4z"/>
<path d="M1028 1054 c-5 -4 -8 -43 -8 -88 0 -48 4 -76 9 -70 5 5 11 18 13 28
5 29 43 30 62 1 9 -13 24 -24 33 -25 112 -6 113 -6 113 48 0 19 -8 40 -20 52
-22 22 -37 25 -60 10 -11 -7 -20 -3 -35 15 -20 25 -92 44 -107 29z m76 -20
c21 -8 21 -60 0 -68 -9 -3 -27 -6 -40 -6 -21 0 -24 4 -24 40 0 36 3 40 24 40
13 0 31 -3 40 -6z m114 -54 c2 -11 -7 -16 -29 -16 -30 -2 -53 -20 -43 -35 2
-4 0 -10 -5 -13 -16 -10 -23 31 -9 53 19 31 80 39 86 11z m4 -45 c1 -15 -27
-29 -45 -22 -26 10 -9 39 20 35 13 -2 24 -7 25 -13z"/>
<path d="M902 1020 c-7 -12 -8 -20 -2 -20 5 0 10 -20 10 -44 0 -48 19 -73 47
-61 16 6 16 8 -4 16 -19 7 -23 16 -23 49 0 29 4 40 15 40 8 0 15 5 15 10 0 6
-7 10 -15 10 -8 0 -15 5 -15 10 0 17 -14 11 -28 -10z"/>
<path d="M1538 1013 c-30 -8 -20 -25 10 -19 15 3 33 2 41 -3 16 -10 5 -35 -13
-28 -23 9 -56 -12 -56 -37 0 -29 21 -39 65 -30 27 5 32 9 27 27 -4 20 -3 20
25 -5 33 -32 64 -36 84 -11 13 15 11 16 -13 10 -14 -4 -34 -4 -42 -1 -19 7
-22 36 -3 33 41 -5 77 2 77 16 0 22 -37 55 -60 55 -11 0 -29 -9 -40 -20 l-20
-20 -20 20 c-20 20 -29 22 -62 13z m156 -19 c28 -11 18 -31 -14 -30 -30 1 -41
20 -17 29 6 3 13 6 14 6 1 1 8 -2 17 -5z m-94 -52 c0 -14 -23 -32 -41 -32 -21
0 -33 16 -24 30 7 12 65 14 65 2z"/>
<path d="M1530 749 c0 -37 4 -58 10 -54 6 3 10 31 10 61 0 30 -4 54 -10 54 -6
0 -10 -27 -10 -61z"/>
<path d="M1020 783 c-6 -52 -4 -83 5 -82 6 0 9 9 8 20 -2 16 3 19 32 19 31 0
35 -3 35 -27 1 -26 2 -27 14 -10 12 15 14 15 19 3 5 -12 21 -15 77 -12 65 3
70 2 71 -18 1 -17 2 -18 6 -3 3 11 14 17 34 17 17 0 32 6 35 15 6 14 8 13 20
-2 12 -16 13 -13 14 26 0 60 16 48 19 -14 1 -23 4 -25 56 -25 l55 0 0 40 c0
34 -4 41 -25 46 -14 3 -32 4 -40 1 -8 -4 -21 1 -30 9 -14 15 -18 14 -40 -10
-14 -15 -25 -23 -25 -18 0 15 -29 23 -56 16 -15 -4 -24 -13 -24 -26 0 -15 -5
-18 -22 -13 -37 11 -45 25 -15 25 15 0 27 5 27 10 0 13 -43 13 -57 -1 -8 -8
-13 -8 -17 0 -10 16 -56 13 -62 -4 -9 -22 -23 -9 -17 15 3 11 0 20 -6 20 -6 0
-11 -9 -11 -20 0 -16 -7 -20 -34 -20 -28 0 -35 4 -39 23 l-4 22 -3 -22z m178
-51 c-4 -22 -46 -28 -54 -8 -4 9 -1 23 6 31 16 19 53 1 48 -23z m278 28 c13 0
24 -4 24 -10 0 -5 -11 -10 -25 -10 -14 0 -28 -7 -31 -15 -10 -26 -24 -16 -24
16 0 24 3 30 16 25 9 -3 27 -6 40 -6z m-126 -25 c0 -20 -5 -25 -23 -25 -30 0
-36 6 -30 31 3 12 14 19 29 19 19 0 24 -5 24 -25z m-100 -15 c12 -8 9 -10 -12
-10 -16 0 -28 5 -28 10 0 13 20 13 40 0z m250 1 c0 -14 -18 -23 -30 -16 -6 4
-8 11 -5 16 8 12 35 12 35 0z"/>
</g>
</svg>
